<svg width="53" height="67" viewBox="0 0 53 67" fill="none" xmlns="http://www.w3.org/2000/svg">
<path d="M8.10937 0.827971C7.30707 0.312635 6.38515 0.0273986 5.43936 0.00187712C4.49356 -0.0236444 3.55836 0.211479 2.73084 0.682835C1.90333 1.15419 1.21367 1.8446 0.733458 2.68238C0.253248 3.52015 -2.16699e-06 4.47476 6.443e-08 5.4471V61.5521C-0.000149279 62.5365 0.259327 63.5027 0.750836 64.3477C1.24235 65.1927 1.94752 65.8851 2.79135 66.3511C3.63518 66.8171 4.58613 67.0394 5.54308 66.9943C6.50003 66.9492 7.42719 66.6384 8.22598 66.0949L50.6279 37.2363C51.3661 36.7334 51.97 36.0485 52.3843 35.244C52.7986 34.4395 53.0102 33.5412 52.9996 32.6311C52.9891 31.7209 52.7568 30.828 52.324 30.0339C51.8911 29.2398 51.2716 28.5698 50.5219 28.0852L8.11997 0.827971H8.10937Z" fill="#2D3037"/>
</svg>
